<svg id="Layer_1" data-name="Layer 1" xmlns="http://www.w3.org/2000/svg" viewBox="0 0 400 100"><defs><style>.cls-1{fill:#bf110b;}</style></defs><path class="cls-1" d="M62.45,70.6c-3-.77-9.28-1.22-14.4-1.15-8.19,11.84-25.6,18.81-32.77,16.19-11.9-4.35,1-14.59,16.9-16.83a122.61,122.61,0,0,1,13.56-1A51.19,51.19,0,0,0,52.21,52L52.46,51C48.62,54.6,36.53,63.49,26,60c-8-2.75-13.06-15.1-6.14-29.63-4.93-5.11-6.15-12.54-.26-18.55.9-1,1.86-.84.83.51-4.22,5.31-3.45,11.45.45,16.12a24.14,24.14,0,0,1,1.41-2.49C29,14.86,42,8.59,52.27,10.19c19.78,3.07,15.42,26.55-11.65,26.94-6.2.13-12.73-1.67-16.83-4.42-5.63,12.16-3.13,22.72,4.36,25.15,8.44,2.75,20.09-4,21.88-8.32,3.71-8.7,8.07-6.14,7.62-2.88-.9,7.11-4,13.44-8.71,21.12a59.9,59.9,0,0,1,14,1.67C64.81,69.89,64.88,71.17,62.45,70.6ZM33,70.53C21.62,72.26,7.54,82,17,84c5.69,1.28,20.28-3.71,27.77-14.46A97.52,97.52,0,0,0,33,70.53Zm-6.34-43c-.7,1.15-1.41,2.37-2,3.52,4,3,10.49,4.73,17,4.09,21.56-2.17,26.62-20.67,10.94-23C43.89,10.83,32.63,17.67,26.61,27.53Z"/><path class="cls-1" d="M75.63,62.21c-2.88,0-4.61-3-2.94-8.19-2.18,3.84-5.5,8.19-8.64,8.19a3.78,3.78,0,0,1-4-2.88c-.58-2.75,1-5.12,2.17-7.42-.38,0-1-.19-.57-1l1.15-2.24c1.28-2.43,2.62-5.06,3.58-7a2.4,2.4,0,0,1,2.5-1.35h3.9c-1.47,1.09-2.36,1.86-4.09,5.38,0,0-2.88,5.82-4,8.25-3.08,6.66-.39,9.22,3.77,4.42,3.58-4.16,7.1-11.65,9.54-16.7a2.39,2.39,0,0,1,2.49-1.35h3.46c-1.86,1.48-2.5,2.37-4.42,6.34-1.79,3.58-3.9,8-4.29,10.18-.57,2.75.32,3.77,1.22,3.83,3.14,0,6.34-6.07,8.51-10.68.51-1.15,1.54-.71.9.57C83.76,54.86,80.3,62.21,75.63,62.21Z"/><path class="cls-1" d="M99.7,53.77c-.64,1.47-2.63,6.84.38,6.84,3.2,0,6.91-7.93,8.26-10.62.51-1.15,1.53-.89,1,.39-1.54,3.58-5.25,11.9-10.37,11.9a3.46,3.46,0,0,1-2.88-1.73,7.18,7.18,0,0,1-.58-5.63c-1.92,3.13-4.93,8.25-9.34,7.1-6-1.66-2.5-12,2.18-17.6,3.58-4.16,9.15-6.4,13.75-3.71,3.08-5.82,5.89-11.71,7.43-15.17,1.21-2.87,2.3-3.51,4.35-3.32a12.67,12.67,0,0,0,2.75.25C114.67,24.27,103.41,44.94,99.7,53.77ZM87.92,52C83.7,59.91,87.54,63.88,93,56.2a152,152,0,0,0,8.57-14.46C98.35,38.6,91.31,45.7,87.92,52Z"/><path class="cls-1" d="M116.59,62.21c-2.17.52-6.08-1.4-3.52-8.06,1-2.62,3.27-5.95,4-7.55.9-2.11-1.34-2.94-4.93-3l-.77,2c-1.53,4-4.6,11.14-7.74,14.14-.51.45-.89-.25-.51-.83,5-6.66,8.57-16.32,9.85-23.49.64-3.58,4.8-2,3.91,2.31-.39,1.79-2.43,3.52-3.52,4.29a62.16,62.16,0,0,0,8.83-.26c.45.9-.58,3.33-1.34,4.93-1,2-7.49,13.69-3.65,13.88,2.62.07,6.59-7.93,7.93-10.68.58-1.09,1.41-.64.77.64C124,54.41,120.75,61.19,116.59,62.21Z"/><path class="cls-1" d="M138.61,62.21c-2.88,0-4.61-3-3-8.19-2.17,3.84-5.5,8.19-8.64,8.19a3.78,3.78,0,0,1-4-2.88c-.57-2.75,1-5.12,2.18-7.42-.39,0-1-.19-.58-1l1.15-2.24c1.28-2.43,2.63-5.06,3.59-7a2.39,2.39,0,0,1,2.49-1.35h3.91c-1.47,1.09-2.37,1.86-4.1,5.38,0,0-2.88,5.82-4,8.25-3.07,6.66-.38,9.22,3.78,4.42,3.58-4.16,7.1-11.65,9.53-16.7a2.39,2.39,0,0,1,2.5-1.35h3.45c-1.85,1.48-2.49,2.37-4.41,6.34-1.79,3.58-3.91,8-4.29,10.18-.58,2.75.32,3.77,1.22,3.83,3.13,0,6.33-6.07,8.51-10.68.51-1.15,1.53-.71.89.57C146.73,54.86,143.28,62.21,138.61,62.21Z"/><path class="cls-1" d="M159.66,62.53c-2.24,0-5.31-1.53-3.39-7.48a32.72,32.72,0,0,1,3.52-6.72c1.54-2.5.39-4.23-4.54.38-2.18,2-5.31,5.57-8.9,12.67-.51.9-1.09,1-2.43,1a4.44,4.44,0,0,0-2.18.39c3.08-6.08,5.7-12.16,8.84-17.92,1.66-3.07,2.49-4.16,4.54-4a9.57,9.57,0,0,0,2.69.25c-1.92,1-5.44,7.43-7.75,12a47.23,47.23,0,0,1,5.32-5.76c3.07-2.75,9.66-6.78,11.83-6,0,0-6.84,12-7.67,16.51-.52,2.62.19,3.2,1,3.2,3.33,0,7.42-8.38,8.77-11.07.51-1.15,1.53-.71.89.57C168.3,54.41,164.59,62.53,159.66,62.53Z"/><path class="cls-1" d="M253.87,15.24c-.77,0-2.12.58-2.69.58-7.81,14.33-7.36,27.07-17.54,40.12-7,9-16,14.15-25.27,15.68-18.05,3-31.87-5-25.86-21,1.6-4.22,6.72-8.25,8.77-8.38,1.34-.07.7.57.06.89-2.24,1-6.4,5-7.74,10.31-3.39,14,13.31,18.68,23.55,16.12,18.62-4.67,29-23.48,32.44-32.76a153.3,153.3,0,0,1,9.6-20.67C237.67,18.63,221.1,22.67,218,36.49c-1.41,6.14,2,10.37,7.49,8.25,6.72-2.68,6.4-10.24,5.37-11.2-.25-.32.83-1.72,1.35-.57,2.49,4.8-1.41,11.26-6.66,13.25-6.78,2.62-13.5-2.18-11.84-9.73,3.33-15.1,24.38-20,36.48-22,.51-1,2.88-4.54,4.93-5.24s3.58-.2,3.64,1.53C258.86,13.39,256.3,14.41,253.87,15.24Zm-1.6-1c5.63-1.15,4.22-3.2,3.45-3.2C255.08,10.76,253.23,13,252.27,14.22Z"/><path class="cls-1" d="M256,62.53c-2.24,0-5.31-1.53-3.39-7.48a33.23,33.23,0,0,1,3.52-6.72c1.54-2.5.39-4.23-4.54.38-2.18,2-5.31,5.57-8.9,12.67-.51.9-1.08,1-2.43,1a4.4,4.4,0,0,0-2.17.39c3.07-6.08,5.69-12.16,8.83-17.92,1.66-3.07,2.49-4.16,4.54-4a9.57,9.57,0,0,0,2.69.25c-1.92,1-5.44,7.43-7.74,12a47.09,47.09,0,0,1,5.31-5.76c3.07-2.75,9.66-6.78,11.84-6,0,0-6.85,12-7.68,16.51-.51,2.62.19,3.2,1,3.2,3.33,0,7.42-8.38,8.77-11.07.51-1.15,1.53-.71.89.57C264.68,54.41,261,62.53,256,62.53Z"/><path class="cls-1" d="M281.84,63.05C279,71.11,270.57,82.5,261.29,82.5c-4,0-6-1.6-6-4.93,0-3.13,2.49-5.56,5.57-7.36,6.27-3.71,12.09-4.92,17-6.91a31.15,31.15,0,0,0,1.47-7.1A19.63,19.63,0,0,0,279.4,51c-2,4-7.16,12.61-12.28,11.07-6.4-2.75-2.56-12,2.17-17.6,3.78-4.54,10-6.72,14.85-2.94,2.24,1.86,0,3.78-.7,1.86-1.67-4.55-6.4-2-10.31,2.36-4.67,5.25-8.25,13-4.92,14.47,3.77,1.6,10-8.2,11.19-12.23.9-2.94,3-1.79,4-2.56a37.64,37.64,0,0,1-.83,15.55A19.34,19.34,0,0,0,287,56.78,36.68,36.68,0,0,0,290.73,50c.58-1.15,1.6-.77,1,.51C288.43,57.22,286.57,60.81,281.84,63.05ZM275,65.93c-4.67,1.6-10.05,3.45-14.08,6.14s-6.46,9.15-1.15,9.15c2.75,0,6.53-2.18,8.06-3.33a36.63,36.63,0,0,0,5.76-6.27,33,33,0,0,0,3.65-6.46Z"/><path class="cls-1" d="M293,60.87a4.17,4.17,0,0,0,2.88-1.22c2.11-2.11,4.23-6.07,6-9.66.51-1.15,1.41-.7.83.58-1.66,3.58-5.31,11.71-10.05,11.71s-4.8-5-3.45-8.32l4.09-10.43a2.76,2.76,0,0,0-.64-2.69l3.52-.06c2.05,0,2.05.7,1.35,2.24L292.4,55s-.64,1.41-.77,1.86C291.05,59,291.18,60.74,293,60.87Zm4.61-22.72a2.2,2.2,0,0,1-2.24-2.62,3.27,3.27,0,0,1,3.07-2.63,2.18,2.18,0,0,1,2.24,2.63A3.2,3.2,0,0,1,297.58,38.15Z"/><path class="cls-1" d="M324.71,62.53c-2.3,0-5.37-1.53-3.45-7.48a32.72,32.72,0,0,1,3.52-6.72c1.54-2.5.38-4.23-4.54.38-2.76,2.56-8.2,9.73-9,13.57-1.47,0-2.37-1.67-2-3.52a26.81,26.81,0,0,1,2.69-7.3c2.11-4.35,4.16-9-2.56-2.75-2.17,2-5.18,5.44-8.83,12.48-.45,1-1,1-2.43,1a4.29,4.29,0,0,0-2.11.39c3.07-6.08,5.57-12,8.7-17.79,1.66-3.07,2.5-4.16,4.54-4a9.64,9.64,0,0,0,2.69.25c-1.92,1-5.44,7.43-7.74,12a47.9,47.9,0,0,1,5.31-5.76c3.07-2.75,7.17-6.78,9.34-6a1.89,1.89,0,0,1,1,2.81c-1.15,2.69-3.13,5.83-4.67,9a53.43,53.43,0,0,1,5.31-5.76c3.08-2.75,9.73-6.78,11.84-6,0,0-6.78,12-7.68,16.51-.44,2.62.26,3.2,1.09,3.2,3.33,0,7.42-8.13,8.77-11.07.51-1.15,1.53-.71.89.57C333.35,54.41,329.58,62.53,324.71,62.53Z"/><path class="cls-1" d="M348,62.41c-2.11.12-5.12-1.54-3.2-8.26a32.59,32.59,0,0,1-4.61,6c-7.36,7-12.22-4.16-2.56-15.75,3.84-4.54,11.2-6.91,14.85-2.94.9,1,.39,2.05-.7,1.86-.71-2.37-3.08-2.88-5.44-1.6-2.88,1.6-6.21,5.37-8.51,9.15a22.76,22.76,0,0,0-2.63,6.46c-.64,4.48,2.88,4,5.89.38a51.43,51.43,0,0,0,5.69-8.95c1.41-2.69,2.31-4.23,4.36-4.1a9.54,9.54,0,0,0,2.68.26c-1.34,1.34-5.12,8.06-5.95,12-.51,2.63-.19,3.84.64,3.84,2.69.13,6.91-8,8.26-10.75.57-1.15,1.53-.77.89.51C355.75,54.41,351.85,62.09,348,62.41Z"/><path class="cls-1" d="M365,62.21c-2.18.52-6.08-1.4-3.52-8.06,1-2.62,3.26-5.95,4-7.55.89-2.11-1.34-2.94-4.93-3l-.77,2c-1.53,4-4.6,11.14-7.74,14.14-.51.45-.9-.25-.51-.83,5-6.66,8.57-16.32,9.85-23.49.64-3.58,4.8-2,3.91,2.31-.39,1.79-2.44,3.52-3.52,4.29a62.16,62.16,0,0,0,8.83-.26c.45.9-.58,3.33-1.35,4.93-1,2-7.48,13.69-3.64,13.88,2.62.07,6.59-7.93,7.93-10.68.58-1.09,1.41-.64.77.64C372.39,54.41,369.13,61.19,365,62.21Z"/><path class="cls-1" d="M377.39,61.89a6.79,6.79,0,0,1-2.63.64c-7.74,0-6.27-8.89-3.2-9,1.73-3.26,3.84-7.42,5.51-11.07,1.15-2.5,3.07-5.18,5.31-5.5a4,4,0,0,1,2.37.32c1.15.57.89,1.66-.26,1.08a2.57,2.57,0,0,0-2.05-.06c-2.94,1.41-2.3,5.82-1.34,8.13s2.43,4.73,2.3,7.55c-.13,2.5-2,5.44-4.54,7.1l.45.07c2.17.32,4.16-1,5.76-3s3.45-5.76,4.8-8.38c.32-.64,1.28-.26,1,.38C388.46,55.49,384.62,64.07,377.39,61.89ZM373,56.39c-2.05,2-1.22,5.06,1.28,5.06a2.86,2.86,0,0,0,1.27-.26A5.67,5.67,0,0,1,373,56.39Zm5.63-14.59c-1.73,3.46-4.48,9-6,11.84,0,0,1.41-.06,1.35,2a5.07,5.07,0,0,0,2.68,4.92c1.41-1.08,2.63-3.26,2.82-6.65C379.69,49.93,378.16,44.68,378.67,41.8Z"/></svg>
